<svg xmlns="http://www.w3.org/2000/svg" width="347" height="79" viewBox="0 0 91.81 20.902"><defs><path id="a" d="M34.018 50.649h98.498v50.553H34.018z"/></defs><g fill="#7aa000"><path d="M4.233 0h3.97v3.969h-3.97zM4.233 4.233h3.97v3.97h-3.97zM4.233 8.467h3.97v3.968h-3.97zM4.233 12.7h3.97v3.969h-3.97zM4.233 16.933h3.97v3.97h-3.97zM8.467 8.467h3.968v3.968H8.467zM8.467 16.933h3.968v3.97H8.467zM8.467 0h3.968v3.969H8.467zM12.7 4.233h3.969v3.97H12.7zM12.7 12.7h3.969v3.969H12.7zM12.7 8.467h1.852v1.852H12.7zM12.7 10.583h1.852v1.852H12.7zM12.7 16.933h1.852v1.852H12.7zM12.7 2.117h1.852v1.852H12.7zM12.7 1.058h.794v.794H12.7zM14.817 3.175h.793v.794h-.793zM14.817 8.467h.793v.793h-.793zM14.817 11.642h.793v.793h-.793zM14.817 16.933h.793v.794h-.793zM12.7 19.05h.794v.794H12.7zM0 0h3.969v3.969H0zM0 16.933h3.969v3.97H0z"/></g><g aria-label="Batect" transform="matrix(.78241 0 0 .78241 -5.426 -44.016)" style="line-height:1.25;-inkscape-font-specification:'Zilla Slab, Medium';font-variant-ligatures:normal;font-variant-caps:normal;font-variant-numeric:normal;font-variant-east-asian:normal;white-space:pre;shape-inside:url(#a)" font-weight="500" font-size="32.279" font-family="Zilla Slab" fill="#555"><path d="M52.546 74.05q0 2.519-1.776 4.294-1.743 1.743-5.261 1.743H35.341v-2.55h2.55V61.656h-2.55v-2.55H45.38q3.099 0 4.713 1.388 1.614 1.355 1.614 3.615 0 1.678-1.001 2.937-1 1.227-2.647 1.55v.129q2.26.323 3.357 1.807 1.13 1.485 1.13 3.519zm-3.97-9.231q0-1.808-1.033-2.485-1.033-.678-2.776-.678h-3.939v6.455h3.777q3.97 0 3.97-3.292zm.806 9.103q0-3.454-3.873-3.454h-4.68v7.069h4.067q2.098 0 3.292-.84 1.194-.87 1.194-2.775zM56.205 66.756q1.324-.775 2.583-1.065 1.291-.323 2.808-.323 2.453 0 3.874 1.194 1.452 1.194 1.452 3.68v6.682q0 1.42 1.13 1.42.452 0 .872-.161l.032 1.678q-.904.549-2.098.549-2.615 0-2.776-2.905v-.033q-.646 1.13-1.873 2.034-1.194.904-2.937.904-1.485 0-2.97-.904-1.452-.904-1.452-3.163 0-2.712 2.13-3.551 2.163-.872 4.616-.872 1.485 0 2.486.13v-1.066q0-1.42-.55-2.42-.548-1.001-2.452-1.001-1.55 0-2.615.548l-.549 2.357-2.292-.258zm7.877 7.779v-.84q-.581-.064-1.227-.096-.613-.065-1.259-.065-1.485 0-2.647.485-1.162.484-1.162 2 0 1.163.71 1.68.743.516 1.679.516 1.388 0 2.582-.969 1.195-.968 1.324-2.711zM81.714 76.02q-.614 4.39-4.842 4.39-2.228 0-3.486-1.194-1.227-1.227-1.227-3.39v-8.005h-2.227v-2.163h2.227v-4.551h2.808v4.551h5.52v2.163h-5.52v7.586q0 2.582 2.228 2.582.71 0 1.42-.452.71-.484 1-2.195zM96.043 75.826q-.226 1.872-1.84 3.228t-4.39 1.356q-3.131 0-5.068-1.872-1.937-1.873-1.937-5.423 0-3.357 1.808-5.552 1.807-2.195 5.003-2.195 2.97 0 4.616 1.84 1.646 1.84 1.678 4.454 0 .872-.193 1.84h-9.942q.193 4.584 4.228 4.584 1.679 0 2.518-.807.872-.807 1.162-1.937zm-3.067-4.228q.13-1.42-.71-2.712-.807-1.323-2.712-1.323-1.775 0-2.679 1.194-.871 1.162-1.065 2.84zM111.137 75.084q-.259 1.904-1.711 3.615-1.42 1.71-4.552 1.71-3.034 0-4.906-1.871-1.84-1.905-1.84-5.423 0-3.26 1.84-5.488 1.84-2.26 5.132-2.26 1.356 0 2.615.324 1.259.322 2.389 1.13l.58 3.744-2.291.258-.517-2.421q-1.226-.71-2.808-.71-2.033 0-3.002 1.485-.968 1.452-.968 3.776 0 2.421 1.033 3.777 1.033 1.356 3.034 1.356 3.002 0 3.583-3.486zM124.27 76.02q-.614 4.39-4.843 4.39-2.227 0-3.486-1.194-1.226-1.227-1.226-3.39v-8.005h-2.228v-2.163h2.228v-4.551h2.808v4.551h5.52v2.163h-5.52v7.586q0 2.582 2.227 2.582.71 0 1.42-.452.71-.484 1.001-2.195z" style="-inkscape-font-specification:'Zilla Slab, Medium';font-variant-ligatures:normal;font-variant-caps:normal;font-variant-numeric:normal;font-variant-east-asian:normal"/></g></svg>