<svg xmlns="http://www.w3.org/2000/svg" width="347" height="79" viewBox="0 0 91.81 20.902"><defs><path id="a" d="M34.018 50.649h98.498v50.553H34.018z"/></defs><g fill="#7aa000"><path d="M4.233 0h3.969v3.969H4.233zM4.233 4.233h3.969v3.969H4.233zM4.233 8.467h3.969v3.969H4.233zM4.233 12.7h3.969v3.969H4.233zM4.233 16.933h3.969v3.969H4.233zM8.467 8.467h3.969v3.969H8.467zM8.467 16.933h3.969v3.969H8.467zM8.467 0h3.969v3.969H8.467zM12.7 4.233h3.969v3.969H12.7zM12.7 12.7h3.969v3.969H12.7zM12.7 8.467h1.852v1.852H12.7zM12.7 10.583h1.852v1.852H12.7zM12.7 16.933h1.852v1.852H12.7zM12.7 2.117h1.852v1.852H12.7zM12.7 1.058h.794v.794H12.7zM14.817 3.175h.794v.794h-.794zM14.817 8.467h.794v.794h-.794zM14.817 11.642h.794v.794h-.794zM14.817 16.933h.794v.794h-.794zM12.7 19.05h.794v.794H12.7zM0 0h3.969v3.969H0zM0 16.933h3.969v3.969H0z"/></g><text style="line-height:1.25;-inkscape-font-specification:'Zilla Slab, Medium';font-variant-ligatures:normal;font-variant-caps:normal;font-variant-numeric:normal;font-variant-east-asian:normal;white-space:pre;shape-inside:url(#a)" transform="matrix(.78241 0 0 .78241 -5.426 -44.016)" font-weight="500" font-size="32.279" font-family="Zilla Slab" fill="#555"><tspan x="34.018" y="80.087"><tspan style="-inkscape-font-specification:'Zilla Slab, Medium';font-variant-ligatures:normal;font-variant-caps:normal;font-variant-numeric:normal;font-variant-east-asian:normal">Batect</tspan></tspan></text></svg>