<svg xmlns="http://www.w3.org/2000/svg" width="79" height="79" viewBox="0 0 20.902 20.902"><g fill="#7aa000"><path d="M6.35 0h3.969v3.969h-3.97zM6.35 4.233h3.969v3.969h-3.97zM6.35 8.467h3.969v3.969h-3.97zM6.35 12.7h3.969v3.969h-3.97zM6.35 16.933h3.969v3.969h-3.97zM10.584 8.467h3.969v3.969h-3.97zM10.584 16.933h3.969v3.969h-3.97zM10.584 0h3.969v3.969h-3.97zM14.817 4.233h3.969v3.969h-3.97zM14.817 12.7h3.969v3.969h-3.97zM14.817 8.467h1.852v1.852h-1.852zM14.817 10.583h1.852v1.852h-1.852zM14.817 16.933h1.852v1.852h-1.852zM14.817 2.117h1.852v1.852h-1.852zM14.817 1.058h.794v.794h-.794zM16.934 3.175h.794v.794h-.794zM16.934 8.467h.794v.794h-.794zM16.934 11.642h.794v.794h-.794zM16.934 16.933h.794v.794h-.794zM14.817 19.05h.794v.794h-.794zM2.117 0h3.969v3.969h-3.97zM2.117 16.933h3.969v3.969h-3.97z"/></g></svg>