<svg xmlns="http://www.w3.org/2000/svg" width="161" height="135" viewBox="0 0 42.598 35.719"><defs><path id="a" d="M34.018 50.649h98.498v50.553H34.018z"/></defs><path fill="#7aa000" d="M17.198.074h3.969v3.969h-3.969zM17.198 4.307h3.969v3.969h-3.969zM17.198 8.541h3.969v3.969h-3.969zM17.198 12.774h3.969v3.969h-3.969zM17.198 17.007h3.969v3.969h-3.969zM21.431 8.541H25.4v3.969h-3.969zM21.431 17.007H25.4v3.969h-3.969zM21.431.074H25.4v3.969h-3.969zM25.665 4.307h3.969v3.969h-3.969zM25.665 12.774h3.969v3.969h-3.969zM25.665 8.541h1.852v1.852h-1.852zM25.665 10.657h1.852v1.852h-1.852zM25.665 17.007h1.852v1.852h-1.852zM25.665 2.191h1.852v1.852h-1.852zM25.665 1.132h.794v.794h-.794zM27.781 3.249h.794v.794h-.794zM27.781 8.541h.794v.794h-.794zM27.781 11.716h.794v.794h-.794zM27.781 17.007h.794v.794h-.794zM25.665 19.124h.794v.794h-.794zM12.965.074h3.969v3.969h-3.969zM12.965 17.007h3.969v3.969h-3.969z"/><text style="line-height:1.25;-inkscape-font-specification:'Zilla Slab, Medium';font-variant-ligatures:normal;font-variant-caps:normal;font-variant-numeric:normal;font-variant-east-asian:normal;white-space:pre;shape-inside:url(#a)" transform="matrix(.47742 0 0 .47742 -16.801 -2.744)" font-weight="500" font-size="32.279" font-family="Zilla Slab" fill="#555"><tspan x="34.018" y="80.087"><tspan style="-inkscape-font-specification:'Zilla Slab, Medium';font-variant-ligatures:normal;font-variant-caps:normal;font-variant-numeric:normal;font-variant-east-asian:normal">Batect</tspan></tspan></text></svg>